<?xml version="1.0" standalone="no"?>
<!DOCTYPE svg PUBLIC "-//W3C//DTD SVG 20010904//EN"
 "http://www.w3.org/TR/2001/REC-SVG-20010904/DTD/svg10.dtd">
<svg version="1.0" xmlns="http://www.w3.org/2000/svg"
 width="1516.000000pt" height="1132.000000pt" viewBox="0 0 1516.000000 1132.000000"
 preserveAspectRatio="xMidYMid meet">

<g transform="translate(0.000000,1132.000000) scale(0.100000,-0.100000)"
fill="#000000" stroke="none">
<path d="M582 10598 c-17 -17 -17 -10249 0 -10266 9 -9 1592 -12 7064 -12
6421 0 7052 1 7058 16 8 21 8 10237 0 10258 -6 15 -637 16 -7058 16 -5472 0
-7055 -3 -7064 -12z m14048 -5133 l0 -5075 -6990 0 -6990 0 0 5075 0 5075
6990 0 6990 0 0 -5075z"/>
<path d="M2592 10408 c-9 -9 -12 -125 -12 -459 0 -398 2 -448 16 -453 9 -3
406 -6 883 -6 661 0 870 3 879 12 17 17 17 889 0 906 -17 17 -1749 17 -1766 0z
m1698 -458 l0 -390 -815 0 -815 0 0 390 0 390 815 0 815 0 0 -390z"/>
<path d="M3700 9990 c0 -147 4 -230 10 -230 6 0 10 45 10 114 0 119 10 166 34
166 22 0 26 -23 26 -156 0 -76 4 -124 10 -124 13 0 13 270 0 304 -11 30 -37
34 -56 9 -11 -16 -13 -6 -14 65 0 48 -4 82 -10 82 -6 0 -10 -83 -10 -230z"/>
<path d="M2730 9980 c0 -210 1 -220 19 -220 64 0 83 42 89 191 6 173 -20 249
-87 249 -21 0 -21 -4 -21 -220z m77 130 c7 -19 12 -78 12 -130 0 -113 -14
-164 -46 -168 l-23 -3 0 171 0 171 23 -3 c15 -2 26 -14 34 -38z"/>
<path d="M3280 9986 c0 -133 4 -217 10 -221 6 -4 10 46 11 142 1 147 9 158 24
30 4 -32 9 -56 12 -53 3 3 11 45 18 93 l13 88 1 -152 c1 -95 5 -153 11 -153 6
0 10 80 10 221 0 172 -3 220 -12 217 -8 -3 -18 -40 -25 -92 -6 -48 -13 -90
-16 -92 -2 -3 -7 19 -11 48 -15 124 -18 138 -32 138 -12 0 -14 -38 -14 -214z"/>
<path d="M3884 10186 c-7 -17 3 -52 12 -44 2 3 6 15 9 26 5 26 -13 40 -21 18z"/>
<path d="M2890 9925 c0 -103 4 -165 10 -165 6 0 10 44 10 113 0 118 12 163 43
161 12 -1 17 6 17 27 0 33 -15 37 -42 12 -17 -15 -18 -15 -18 0 0 10 -4 17
-10 17 -6 0 -10 -62 -10 -165z"/>
<path d="M3012 9948 c4 -143 15 -188 43 -188 8 0 19 8 24 18 10 16 10 16 11 0
0 -10 5 -18 10 -18 6 0 10 62 10 165 0 103 -4 165 -10 165 -6 0 -10 -50 -10
-129 0 -107 -3 -132 -16 -146 -30 -30 -39 -1 -42 140 -3 84 -8 135 -14 135 -7
0 -9 -49 -6 -142z"/>
<path d="M3140 9925 c0 -103 4 -165 10 -165 6 0 10 53 10 140 0 118 2 140 15
140 13 0 15 -22 15 -140 0 -87 4 -140 10 -140 6 0 10 54 10 141 0 108 3 140
13 137 9 -3 13 -43 15 -141 2 -87 6 -137 13 -137 7 0 9 52 7 155 -3 161 -11
192 -43 165 -10 -8 -15 -9 -15 -1 0 15 -27 14 -33 -1 -4 -10 -6 -10 -6 0 -1 6
-5 12 -11 12 -6 0 -10 -62 -10 -165z"/>
<path d="M3442 10065 c-15 -32 -16 -65 -2 -65 6 0 10 6 10 14 0 7 6 19 14 25
12 10 17 8 25 -8 20 -37 13 -66 -18 -78 -36 -13 -55 -70 -45 -132 8 -51 28
-70 55 -53 11 7 19 8 19 2 0 -5 6 -10 13 -10 16 0 11 264 -6 300 -17 35 -50
38 -65 5z m58 -188 c0 -66 -42 -95 -55 -37 -8 35 15 80 40 80 11 0 15 -12 15
-43z"/>
<path d="M3592 10077 c-34 -40 -40 -222 -10 -284 19 -40 52 -42 67 -4 7 16 11
40 9 53 -3 22 -4 22 -18 -7 -9 -16 -20 -29 -25 -28 -20 3 -37 77 -32 139 5 75
22 111 43 93 8 -6 14 -20 14 -30 0 -10 5 -21 10 -24 16 -10 12 58 -6 83 -17
25 -36 28 -52 9z"/>
<path d="M3847 10083 c-15 -15 -7 -43 13 -43 19 0 20 -7 20 -115 0 -108 -1
-115 -20 -115 -15 0 -20 -7 -20 -25 0 -23 3 -25 50 -25 46 0 50 2 50 24 0 15
-7 26 -20 29 -19 5 -20 14 -20 141 0 136 0 136 -23 136 -13 0 -27 -3 -30 -7z"/>
<path d="M3980 9925 c0 -103 4 -165 10 -165 6 0 10 47 10 121 0 120 8 159 34
159 20 0 26 -33 26 -162 0 -72 4 -118 10 -118 11 0 12 250 1 289 -3 13 -14 29
-24 35 -15 9 -21 7 -33 -8 -12 -17 -14 -18 -14 -3 0 9 -4 17 -10 17 -6 0 -10
-62 -10 -165z"/>
<path d="M4133 10053 c-22 -52 -22 -204 0 -256 13 -31 21 -38 39 -35 13 2 28
15 36 31 18 37 6 54 -18 25 -14 -17 -22 -20 -30 -12 -14 13 -31 84 -24 96 3 4
24 8 46 8 l41 0 -5 63 c-10 115 -52 155 -85 80z m57 -39 c18 -47 13 -64 -20
-64 -26 0 -30 3 -30 29 0 62 32 84 50 35z"/>
<path d="M862 10398 c-17 -17 -17 -869 0 -886 17 -17 1639 -17 1656 0 17 17
17 869 0 886 -17 17 -1639 17 -1656 0z m1588 -443 l0 -375 -760 0 -760 0 0
375 0 375 760 0 760 0 0 -375z"/>
<path d="M1150 10000 c0 -183 1 -190 20 -190 19 0 20 7 20 90 l0 90 70 0 70 0
0 -90 c0 -83 1 -90 20 -90 19 0 20 7 20 190 0 183 -1 190 -20 190 -18 0 -20
-7 -20 -80 l0 -80 -70 0 -70 0 0 80 c0 73 -2 80 -20 80 -19 0 -20 -7 -20 -190z"/>
<path d="M1475 10067 c-84 -84 -39 -257 67 -257 54 0 76 14 99 63 66 147 -62
298 -166 194z m102 -22 c27 -19 46 -83 37 -122 -9 -38 -43 -73 -70 -73 -62 0
-90 135 -39 185 28 29 42 31 72 10z"/>
<path d="M1772 10091 c-7 -4 -24 -6 -38 -3 l-24 4 0 -141 c0 -134 1 -141 20
-141 19 0 20 7 20 114 0 118 9 146 45 132 12 -4 15 -28 15 -126 0 -113 1 -120
20 -120 19 0 20 7 20 108 0 115 11 151 44 139 14 -5 16 -24 16 -127 l0 -120
25 0 25 0 0 103 c0 129 -12 175 -47 183 -15 4 -35 2 -46 -5 -14 -9 -22 -10
-30 -2 -13 13 -47 14 -65 2z"/>
<path d="M2069 10085 c-76 -41 -80 -208 -7 -259 42 -30 146 -12 161 28 8 21
-21 28 -46 11 -45 -32 -104 -7 -122 53 -6 22 -5 22 84 22 l91 0 0 33 c0 95
-85 154 -161 112z m91 -45 c11 -11 20 -29 20 -40 0 -18 -7 -20 -60 -20 -68 0
-78 15 -38 57 26 28 52 29 78 3z"/>
<path d="M4437 10363 c-4 -3 -7 -191 -7 -418 0 -306 3 -414 12 -423 9 -9 248
-12 1014 -12 898 0 1004 2 1018 16 14 13 16 65 16 418 0 299 -3 405 -12 414
-9 9 -250 12 -1023 12 -557 0 -1015 -3 -1018 -7z m1973 -418 l0 -355 -955 0
-955 0 0 355 0 355 955 0 955 0 0 -355z"/>
<path d="M4600 9965 l0 -165 50 0 c43 0 50 3 50 20 0 17 -7 20 -40 20 l-40 0
0 145 c0 90 -4 145 -10 145 -6 0 -10 -62 -10 -165z"/>
<path d="M5072 10114 c4 -21 22 -23 26 -1 2 10 -3 17 -13 17 -10 0 -15 -6 -13
-16z"/>
<path d="M5396 10113 c-15 -53 -67 -336 -62 -340 9 -9 14 10 50 190 18 92 30
167 25 167 -4 0 -10 -8 -13 -17z"/>
<path d="M5460 9965 l0 -165 55 0 c48 0 55 2 55 20 0 17 -7 20 -45 20 l-45 0
0 145 c0 90 -4 145 -10 145 -6 0 -10 -62 -10 -165z"/>
<path d="M6210 10080 c0 -20 -5 -30 -15 -30 -8 0 -15 -6 -15 -14 0 -8 7 -16
15 -20 12 -4 15 -23 15 -85 0 -100 11 -131 45 -131 18 0 25 5 25 20 0 12 -5
17 -13 14 -27 -10 -38 22 -35 103 3 72 5 78 26 81 31 5 29 32 -3 32 -21 0 -25
5 -25 30 0 17 -4 30 -10 30 -5 0 -10 -13 -10 -30z"/>
<path d="M4755 10020 c-20 -39 -20 -152 1 -191 20 -41 53 -36 77 11 14 27 17
50 14 97 -8 103 -58 149 -92 83z m70 -95 c0 -49 -4 -69 -18 -82 -18 -17 -19
-17 -33 1 -20 28 -19 140 2 161 16 15 18 15 33 0 11 -11 16 -34 16 -80z"/>
<path d="M4899 10023 c-19 -35 -19 -161 1 -197 12 -23 19 -27 43 -22 28 6 29
4 22 -22 -10 -40 -22 -49 -46 -34 -25 16 -37 7 -23 -16 7 -10 24 -17 40 -17
24 0 31 6 41 35 15 43 17 300 3 300 -5 0 -10 -5 -10 -12 0 -9 -3 -9 -12 0 -20
20 -44 14 -59 -15z m65 -29 c13 -34 6 -132 -10 -149 -15 -15 -18 -15 -33 -1
-16 17 -22 115 -9 149 9 21 44 22 52 1z"/>
<path d="M5030 10031 c0 -13 8 -21 23 -23 20 -3 22 -9 25 -85 3 -83 3 -83 -23
-83 -18 0 -25 -5 -25 -20 0 -18 7 -20 55 -20 48 0 55 2 55 20 0 13 -7 20 -20
20 -18 0 -20 8 -22 103 l-3 102 -32 3 c-27 3 -33 0 -33 -17z"/>
<path d="M5170 9925 c0 -77 4 -125 10 -125 6 0 10 36 10 89 0 70 4 93 18 110
12 15 21 18 32 11 11 -7 16 -34 18 -110 3 -60 8 -100 14 -100 7 0 9 38 6 110
-4 86 -8 115 -21 128 -15 14 -20 15 -39 3 -16 -10 -23 -10 -26 -2 -2 6 -8 11
-13 11 -5 0 -9 -56 -9 -125z"/>
<path d="M5623 10023 c-26 -40 -25 -173 1 -202 45 -50 86 -3 86 99 0 112 -46
166 -87 103z m51 -19 c23 -22 22 -136 0 -159 -16 -15 -18 -15 -33 0 -21 20
-22 134 -2 158 16 21 16 21 35 1z"/>
<path d="M5766 10028 c-22 -32 -22 -175 0 -207 12 -17 22 -21 40 -17 27 7 32
-10 14 -45 -13 -23 -36 -25 -48 -3 -14 25 -25 -1 -12 -26 16 -29 60 -23 77 10
16 31 18 310 3 310 -5 0 -10 -5 -10 -12 0 -9 -3 -9 -12 0 -18 18 -35 15 -52
-10z m58 -34 c11 -29 6 -130 -7 -148 -13 -17 -14 -17 -30 -1 -12 12 -17 33
-17 75 0 71 6 90 30 90 10 0 21 -7 24 -16z"/>
<path d="M5906 10016 c-20 -42 -21 -135 -2 -181 21 -49 57 -49 81 1 23 49 18
163 -9 193 -28 30 -51 26 -70 -13z m74 -90 c0 -32 -6 -61 -17 -75 l-16 -24
-19 23 c-24 29 -25 116 -1 149 l16 24 19 -23 c12 -15 18 -39 18 -74z"/>
<path d="M6040 9950 c0 -54 5 -111 12 -125 12 -27 36 -33 56 -13 9 9 12 9 12
0 0 -7 5 -12 10 -12 6 0 10 48 10 125 0 77 -4 125 -10 125 -6 0 -10 -38 -10
-93 0 -104 -14 -143 -44 -118 -13 11 -16 34 -16 112 0 59 -4 99 -10 99 -6 0
-10 -40 -10 -100z"/>
<path d="M9093 8962 c-7 -4 -13 -38 -15 -82 l-3 -75 -1685 -2 c-1570 -3 -1686
-4 -1697 -20 -20 -26 -17 -177 3 -197 14 -14 182 -16 1700 -16 l1684 0 0 -89
c0 -72 3 -90 16 -95 26 -10 204 -7 225 4 16 9 19 22 19 95 l0 85 123 0 c82 0
127 4 135 12 16 16 16 190 0 206 -8 8 -53 12 -135 12 l-123 0 0 75 c0 63 -3
76 -19 85 -23 12 -210 14 -228 2z"/>
<path d="M11064 8773 c-27 -41 -30 -130 -6 -172 10 -19 24 -37 31 -39 6 -2 3
11 -9 30 -27 45 -27 131 0 176 24 39 10 43 -16 5z"/>
<path d="M13630 8795 c0 -3 7 -17 17 -31 23 -36 23 -132 0 -168 -10 -15 -16
-30 -13 -33 8 -9 46 60 47 87 3 46 -3 84 -17 112 -13 25 -34 46 -34 33z"/>
<path d="M10300 8780 c0 -5 9 -10 20 -10 18 0 20 -7 20 -70 0 -63 -2 -70 -20
-70 -11 0 -20 -4 -20 -10 0 -5 23 -10 50 -10 28 0 50 5 50 10 0 6 -9 10 -20
10 -18 0 -20 7 -20 80 l0 80 -30 0 c-16 0 -30 -4 -30 -10z"/>
<path d="M11310 8780 c0 -5 9 -10 20 -10 18 0 20 -7 20 -70 0 -63 -2 -70 -20
-70 -11 0 -20 -4 -20 -10 0 -5 23 -10 50 -10 28 0 50 5 50 10 0 6 -9 10 -20
10 -18 0 -20 7 -20 80 l0 80 -30 0 c-16 0 -30 -4 -30 -10z"/>
<path d="M11670 8761 c0 -24 -3 -28 -23 -24 -32 6 -57 -21 -57 -62 0 -43 22
-65 65 -63 l35 1 0 89 c0 52 -4 88 -10 88 -5 0 -10 -13 -10 -29z m-5 -86 c0
-36 -2 -40 -25 -40 -20 0 -26 6 -28 28 -5 42 5 59 30 55 20 -3 23 -9 23 -43z"/>
<path d="M12932 8778 c-7 -7 -12 -18 -12 -25 0 -7 -7 -13 -15 -13 -8 0 -15 -4
-15 -10 0 -5 7 -10 15 -10 12 0 15 -13 15 -55 0 -30 5 -55 10 -55 6 0 10 25
10 55 0 52 1 55 25 55 14 0 25 5 25 10 0 6 -11 10 -25 10 -40 0 -26 32 20 43
14 3 11 5 -10 6 -17 0 -36 -4 -43 -11z"/>
<path d="M13330 8780 c0 -5 9 -10 20 -10 18 0 20 -7 20 -70 0 -63 -2 -70 -20
-70 -11 0 -20 -4 -20 -10 0 -5 23 -10 50 -10 28 0 50 5 50 10 0 6 -9 10 -20
10 -18 0 -20 7 -20 80 l0 80 -30 0 c-16 0 -30 -4 -30 -10z"/>
<path d="M13550 8760 c0 -28 -2 -30 -25 -24 -35 9 -65 -20 -65 -61 0 -41 27
-65 68 -62 l32 2 0 88 c0 48 -2 87 -5 87 -3 0 -5 -14 -5 -30z m-4 -64 c9 -38
-4 -66 -31 -66 -23 0 -35 17 -35 49 0 42 56 57 66 17z"/>
<path d="M10000 8776 c0 -19 53 -166 59 -166 5 0 19 31 30 70 12 38 24 76 27
85 3 8 1 15 -5 15 -6 0 -19 -27 -28 -60 -10 -33 -21 -60 -24 -60 -4 0 -14 27
-23 60 -9 33 -21 60 -27 60 -5 0 -9 -2 -9 -4z"/>
<path d="M11170 8765 c-21 -25 -4 -62 34 -75 34 -11 51 -33 40 -51 -9 -15 -46
-10 -66 8 -26 23 -34 9 -9 -16 25 -25 63 -27 85 -5 30 30 15 60 -43 84 -33 13
-39 31 -17 49 16 13 42 6 50 -15 6 -16 26 -19 26 -5 0 35 -76 55 -100 26z"/>
<path d="M11495 8770 c4 -6 11 -8 16 -5 14 9 11 15 -7 15 -8 0 -12 -5 -9 -10z"/>
<path d="M12070 8770 c0 -5 5 -10 10 -10 6 0 10 5 10 10 0 6 -4 10 -10 10 -5
0 -10 -4 -10 -10z"/>
<path d="M13080 8770 c0 -5 5 -10 10 -10 6 0 10 5 10 10 0 6 -4 10 -10 10 -5
0 -10 -4 -10 -10z"/>
<path d="M12630 8755 c0 -8 -7 -15 -15 -15 -8 0 -15 -4 -15 -10 0 -5 7 -10 15
-10 11 0 15 -11 15 -43 0 -48 13 -67 47 -67 30 0 30 18 1 22 -19 2 -24 10 -26
46 -3 39 -1 42 22 42 14 0 26 5 26 10 0 6 -11 10 -25 10 -16 0 -25 6 -25 15 0
8 -4 15 -10 15 -5 0 -10 -7 -10 -15z"/>
<path d="M10166 8724 c-35 -35 -11 -114 35 -114 27 0 59 35 59 65 0 51 -61 83
-94 49z m64 -18 c26 -32 -7 -87 -44 -73 -16 6 -23 66 -9 80 11 12 40 8 53 -7z"/>
<path d="M10440 8686 c0 -62 11 -75 63 -73 l37 1 0 63 c0 76 -18 85 -22 11 -3
-49 -5 -53 -28 -53 -23 0 -25 4 -28 53 -4 68 -22 67 -22 -2z"/>
<path d="M10575 8732 c-9 -10 -5 -122 4 -122 6 0 11 24 13 53 2 38 7 52 18 52
11 0 17 -15 21 -55 l5 -55 5 55 c3 40 8 55 19 55 11 0 17 -16 21 -55 l6 -55
-1 65 -1 65 -52 1 c-29 1 -55 -1 -58 -4z"/>
<path d="M10753 8732 c-20 -13 -31 -55 -21 -82 15 -41 48 -52 83 -26 17 12 15
14 -20 12 -30 -1 -40 3 -43 17 -3 14 4 17 37 17 37 0 41 2 41 25 0 34 -46 57
-77 37z m55 -29 c2 -9 -7 -13 -27 -13 -30 0 -39 9 -24 24 11 10 46 3 51 -11z"/>
<path d="M11450 8730 c0 -5 11 -10 25 -10 23 0 25 -4 25 -45 0 -41 -2 -45 -25
-45 -14 0 -25 -4 -25 -10 0 -5 25 -10 55 -10 54 0 77 15 33 22 -20 3 -23 10
-26 56 -3 50 -4 52 -33 52 -16 0 -29 -4 -29 -10z"/>
<path d="M11757 8728 c-28 -22 -32 -73 -8 -97 25 -25 50 -27 77 -6 18 14 17
14 -13 9 -20 -4 -39 -2 -48 6 -26 21 -17 30 30 30 38 0 45 3 45 19 0 42 -49
64 -83 39z m61 -25 c2 -9 -8 -13 -33 -13 -33 0 -36 2 -25 15 15 18 51 16 58
-2z"/>
<path d="M12030 8730 c0 -5 9 -10 20 -10 17 0 20 -7 20 -45 0 -38 -3 -45 -20
-45 -11 0 -20 -4 -20 -10 0 -5 23 -10 50 -10 28 0 50 5 50 10 0 6 -9 10 -20
10 -18 0 -20 7 -20 55 0 54 0 55 -30 55 -16 0 -30 -4 -30 -10z"/>
<path d="M12170 8673 c0 -76 18 -85 22 -10 3 48 5 52 28 52 23 0 25 -4 28 -52
4 -69 22 -68 22 1 0 62 -11 75 -62 73 l-38 -1 0 -63z"/>
<path d="M12310 8648 c0 -52 4 -88 10 -88 6 0 10 13 10 28 0 26 3 28 28 24 46
-6 74 50 49 98 -10 20 -20 25 -55 26 l-42 1 0 -89z m81 51 c16 -31 -4 -71 -34
-67 -39 5 -37 88 2 88 11 0 25 -10 32 -21z"/>
<path d="M12460 8686 c0 -62 11 -75 63 -73 l37 1 0 63 c0 76 -18 85 -22 11 -3
-49 -5 -53 -30 -56 -28 -3 -28 -2 -28 52 0 31 -4 56 -10 56 -5 0 -10 -24 -10
-54z"/>
<path d="M13040 8730 c0 -5 9 -10 20 -10 17 0 20 -7 20 -45 0 -38 -3 -45 -20
-45 -11 0 -20 -4 -20 -10 0 -5 23 -10 50 -10 28 0 50 5 50 10 0 6 -9 10 -20
10 -18 0 -20 7 -20 55 0 54 0 55 -30 55 -16 0 -30 -4 -30 -10z"/>
<path d="M13197 8728 c-28 -22 -32 -73 -8 -97 25 -25 50 -27 77 -6 18 14 17
14 -13 9 -20 -4 -39 -2 -48 6 -26 21 -17 30 30 30 38 0 45 3 45 19 0 42 -49
64 -83 39z m61 -25 c2 -9 -8 -13 -33 -13 -33 0 -36 2 -25 15 15 18 51 16 58
-2z"/>
<path d="M8147 8363 c-4 -3 -7 -44 -7 -90 l0 -83 -1221 0 c-822 0 -1227 -3
-1240 -10 -17 -10 -19 -22 -19 -109 0 -70 4 -102 13 -110 10 -8 354 -12 1238
-13 l1224 -3 3 -85 c2 -52 8 -87 15 -92 18 -12 225 -10 248 2 16 9 19 22 19
95 l0 85 608 0 c460 0 611 3 620 12 19 19 16 193 -4 212 -14 14 -84 16 -620
16 l-604 0 0 78 c0 47 -5 83 -12 90 -13 13 -249 18 -261 5z"/>
<path d="M10751 8155 c-25 -33 -35 -83 -27 -129 7 -35 44 -91 54 -82 3 3 -3
15 -14 27 -15 16 -19 36 -19 89 0 53 4 73 19 89 11 12 17 24 14 27 -3 3 -15
-7 -27 -21z"/>
<path d="M12160 8175 c0 -3 7 -17 17 -31 23 -36 23 -132 0 -168 -10 -15 -16
-30 -13 -33 8 -9 46 60 47 87 3 46 -3 84 -17 112 -13 25 -34 46 -34 33z"/>
<path d="M10120 8075 l0 -85 33 0 c18 0 43 7 55 16 23 16 30 48 12 59 -5 3 -7
19 -3 35 8 41 -11 60 -58 60 l-39 0 0 -85z m83 51 c7 -19 -12 -36 -40 -36 -18
0 -23 6 -23 25 0 21 5 25 29 25 16 0 31 -6 34 -14z m3 -71 c9 -21 -14 -45 -42
-45 -20 0 -24 5 -24 30 0 27 3 30 30 30 18 0 33 -6 36 -15z"/>
<path d="M10270 8075 c0 -50 4 -85 10 -85 6 0 10 15 10 34 0 32 3 35 32 38 23
2 37 11 47 30 14 24 14 28 -3 47 -13 14 -31 21 -58 21 l-38 0 0 -85z m57 69
c45 -12 38 -64 -8 -64 -26 0 -29 3 -29 35 0 37 2 38 37 29z"/>
<path d="M10410 8075 c0 -50 4 -85 10 -85 6 0 10 28 11 63 1 60 1 61 11 25 6
-21 13 -38 18 -38 4 0 14 17 23 38 l15 37 1 -62 c1 -35 6 -63 11 -63 6 0 10
35 10 85 0 67 -3 85 -14 85 -8 0 -20 -16 -26 -35 -13 -40 -25 -38 -35 5 -4 17
-13 30 -21 30 -11 0 -14 -18 -14 -85z"/>
<path d="M10852 8148 c-27 -27 -7 -61 51 -86 19 -8 27 -18 25 -30 -5 -24 -49
-28 -65 -6 -15 20 -28 13 -20 -10 8 -21 54 -31 83 -17 39 17 30 61 -18 83 -45
22 -55 36 -35 55 11 12 19 13 36 4 11 -7 21 -16 21 -21 0 -6 5 -10 10 -10 15
0 12 16 -6 34 -18 19 -65 21 -82 4z"/>
<path d="M11160 8135 c0 -8 -7 -15 -15 -15 -8 0 -15 -4 -15 -10 0 -5 7 -10 15
-10 11 0 15 -11 15 -43 0 -48 13 -67 47 -67 30 0 30 18 1 22 -19 2 -24 10 -26
46 -3 39 -1 42 22 42 14 0 26 5 26 10 0 6 -11 10 -25 10 -16 0 -25 6 -25 15 0
8 -4 15 -10 15 -5 0 -10 -7 -10 -15z"/>
<path d="M11450 8135 c0 -8 -7 -15 -15 -15 -8 0 -15 -4 -15 -10 0 -5 7 -10 15
-10 11 0 15 -11 15 -43 0 -24 5 -48 12 -55 15 -15 58 -16 58 -2 0 6 -11 10
-25 10 -23 0 -25 4 -25 45 0 41 2 45 25 45 14 0 25 5 25 10 0 6 -11 10 -25 10
-16 0 -25 6 -25 15 0 8 -4 15 -10 15 -5 0 -10 -7 -10 -15z"/>
<path d="M11007 8108 c-28 -22 -32 -73 -8 -97 25 -25 50 -27 77 -6 18 14 17
14 -13 9 -20 -4 -39 -2 -48 6 -26 21 -17 30 30 30 38 0 45 3 45 19 0 42 -49
64 -83 39z m61 -25 c2 -9 -8 -13 -33 -13 -33 0 -36 2 -25 15 15 18 51 16 58
-2z"/>
<path d="M11577 8102 c-47 -52 3 -130 67 -106 28 11 17 21 -21 20 -28 -1 -38
3 -41 17 -3 14 4 17 43 17 43 0 46 1 39 23 -15 50 -56 63 -87 29z m63 -17 c11
-13 7 -15 -24 -15 -34 0 -44 8 -29 23 11 12 40 8 53 -8z"/>
<path d="M11700 8053 c0 -36 4 -63 10 -63 6 0 10 25 10 55 0 42 3 55 15 55 12
0 15 -13 15 -55 0 -30 5 -55 10 -55 6 0 10 25 10 55 0 42 3 55 15 55 12 0 15
-13 15 -55 0 -30 5 -55 10 -55 12 0 13 99 2 117 -4 7 -28 11 -60 10 l-52 -2 0
-62z"/>
<path d="M11850 8028 c0 -52 4 -88 10 -88 6 0 10 13 10 28 0 26 3 28 28 24 46
-6 74 50 49 98 -10 20 -20 25 -55 26 l-42 1 0 -89z m81 51 c16 -31 -4 -71 -34
-67 -39 5 -37 88 2 88 11 0 25 -10 32 -21z"/>
<path d="M12007 8102 c-22 -25 -21 -75 1 -95 40 -36 92 -7 92 50 0 54 -59 83
-93 45z m66 -23 c5 -9 7 -28 3 -43 -5 -22 -11 -27 -34 -24 -29 3 -38 23 -28
64 8 29 42 30 59 3z"/>
<path d="M6152 7098 c-18 -18 -17 -451 2 -467 9 -8 94 -11 287 -9 l274 3 0
240 0 240 -275 3 c-206 2 -279 -1 -288 -10z m498 -233 l0 -165 -215 0 -215 0
0 165 0 165 215 0 215 0 0 -165z"/>
<path d="M4248 7079 c-16 -9 -18 -31 -18 -222 0 -152 3 -216 12 -225 9 -9 80
-12 259 -12 216 0 248 2 253 16 3 9 6 110 6 224 0 197 -1 210 -19 220 -26 13
-470 13 -493 -1z m432 -224 l0 -155 -185 0 -185 0 0 155 0 155 185 0 185 0 0
-155z"/>
<path d="M5517 7083 c-13 -12 -8 -428 5 -441 19 -19 501 -17 517 2 8 9 11 78
9 227 -3 242 -3 241 -77 194 -45 -27 -53 -45 -21 -45 19 0 20 -7 20 -155 l0
-155 -190 0 -190 0 -1 98 c0 53 -4 118 -8 143 -4 26 -4 56 0 67 11 29 53 38
84 18 15 -10 46 -16 79 -16 51 0 55 2 75 35 l20 35 -158 0 c-87 0 -161 -3
-164 -7z"/>
<path d="M6796 7074 c-14 -13 -16 -47 -16 -215 0 -119 4 -208 10 -220 10 -18
24 -19 285 -19 261 0 275 1 285 19 6 12 10 101 10 220 0 168 -2 202 -16 215
-13 14 -53 16 -279 16 -226 0 -266 -2 -279 -16z m494 -219 l0 -155 -215 0
-215 0 0 155 0 155 215 0 215 0 0 -155z"/>
<path d="M8126 7074 c-14 -13 -16 -48 -16 -232 0 -119 4 -223 8 -230 7 -9 67
-12 268 -10 l259 3 3 230 c2 207 1 231 -15 242 -12 10 -80 13 -254 13 -203 0
-240 -2 -253 -16z m444 -234 l0 -170 -187 2 -188 3 -3 168 -2 167 190 0 190 0
0 -170z"/>
<path d="M4841 7066 c-8 -9 -11 -77 -9 -222 l3 -209 280 0 280 0 3 209 c2 145
-1 213 -9 222 -9 11 -63 14 -274 14 -211 0 -265 -3 -274 -14z m479 -216 l0
-150 -205 0 -205 0 0 150 0 150 205 0 205 0 0 -150z"/>
<path d="M3674 7047 c-2 -7 -3 -105 -2 -217 l3 -205 247 -3 248 -2 5 22 c3 13
4 111 3 218 l-3 195 -32 3 c-27 3 -34 -2 -49 -29 -11 -23 -13 -34 -5 -37 7 -2
11 -49 11 -148 l0 -144 -52 0 c-49 0 -54 -3 -70 -31 -15 -25 -23 -30 -50 -27
-24 2 -36 10 -46 31 -12 25 -17 27 -78 27 l-65 0 3 143 c3 140 3 142 26 145
13 2 27 14 32 27 17 44 83 44 100 -1 15 -38 52 -32 73 11 l17 35 -155 0 c-117
0 -157 -3 -161 -13z"/>
<path d="M7580 7054 c0 -3 8 -19 17 -35 l17 -29 141 0 141 0 17 35 17 35 -175
0 c-96 0 -175 -3 -175 -6z"/>
<path d="M8830 7041 c-6 -12 -10 -104 -10 -230 0 -177 2 -212 16 -225 13 -14
50 -16 248 -16 167 0 235 3 244 12 13 13 18 431 6 462 -5 14 -37 16 -250 16
-230 0 -244 -1 -254 -19z m428 -223 l2 -168 -180 0 -180 0 0 163 c0 90 3 167
7 171 4 3 84 5 177 4 l171 -3 3 -167z"/>
<path d="M3473 7026 c-62 -26 -67 -30 -60 -50 5 -14 10 -14 41 -1 20 8 38 15
41 15 3 0 5 -61 5 -136 0 -135 0 -135 23 -132 22 3 22 5 22 162 0 98 -4 160
-10 162 -5 1 -33 -8 -62 -20z"/>
<path d="M7471 6844 c-1 -143 2 -203 11 -212 8 -8 51 -12 129 -12 l117 0 -37
40 c-34 37 -40 40 -89 40 l-52 0 0 93 c0 84 -3 97 -31 147 -17 30 -35 66 -39
80 -5 15 -9 -58 -9 -176z"/>
<path d="M13325 7017 c-3 -7 -4 -111 -3 -232 l3 -220 245 0 245 0 0 230 0 230
-243 3 c-191 2 -244 0 -247 -11z m415 -222 l0 -165 -170 0 -170 0 0 165 0 165
170 0 170 0 0 -165z"/>
<path d="M9501 7006 c-8 -9 -11 -73 -9 -207 l3 -194 250 0 250 0 3 194 c2 134
-1 198 -9 207 -9 11 -59 14 -244 14 -185 0 -235 -3 -244 -14z m419 -201 l0
-135 -175 0 -175 0 0 135 0 135 175 0 175 0 0 -135z"/>
<path d="M10122 7008 c-9 -9 -12 -70 -12 -213 0 -143 3 -204 12 -213 9 -9 78
-12 249 -12 131 0 244 3 253 6 14 5 16 34 16 219 0 185 -2 214 -16 219 -9 3
-122 6 -253 6 -171 0 -240 -3 -249 -12z m443 -213 l0 -140 -187 -3 -188 -2 0
145 0 145 188 -2 187 -3 0 -140z"/>
<path d="M10742 7008 c-17 -17 -17 -409 0 -426 8 -8 47 -12 109 -12 l98 0 -17
40 c-17 39 -18 40 -69 40 l-53 0 -2 115 c-1 63 -2 132 -2 152 -1 32 3 39 26
47 21 8 32 6 46 -7 14 -13 37 -17 95 -17 l77 0 15 36 c8 20 15 38 15 40 0 2
-73 4 -163 4 -113 0 -167 -4 -175 -12z"/>
<path d="M11186 6996 c-3 -13 -9 -31 -12 -40 -4 -12 0 -16 15 -16 20 0 21 -4
21 -145 l0 -144 -76 -3 -76 -3 -13 -37 -13 -38 113 0 c90 0 117 3 129 16 13
13 16 46 16 209 0 215 -3 225 -65 225 -26 0 -34 -5 -39 -24z"/>
<path d="M11408 7009 c-16 -9 -18 -31 -18 -223 0 -169 3 -216 14 -225 9 -8 91
-11 277 -9 l264 3 3 219 c2 153 -1 223 -9 232 -9 11 -61 14 -263 14 -152 0
-258 -5 -268 -11z m462 -224 l0 -155 -200 0 -200 0 0 155 0 155 200 0 200 0 0
-155z"/>
<path d="M12072 7012 c-9 -7 -12 -60 -10 -233 l3 -224 260 0 260 0 3 224 c2
173 -1 226 -10 233 -7 4 -121 8 -253 8 -132 0 -246 -4 -253 -8z m446 -229 l3
-153 -196 0 -195 0 0 148 c0 82 3 152 7 156 4 3 90 5 192 4 l186 -3 3 -152z"/>
<path d="M12727 6983 c-9 -8 -9 -416 -1 -437 5 -14 38 -16 264 -16 226 0 259
2 264 16 3 9 6 105 6 214 0 109 -3 205 -6 214 -5 14 -38 16 -263 16 -142 0
-261 -3 -264 -7z m448 -223 l0 -155 -187 -3 -188 -2 0 160 0 160 188 -2 187
-3 0 -155z"/>
<path d="M7968 6886 c-30 -60 -38 -88 -38 -131 l0 -55 -38 0 c-31 0 -45 -7
-77 -40 l-39 -40 106 0 c78 0 109 4 117 14 8 9 11 63 9 171 l-3 156 -37 -75z"/>
<path d="M2830 6880 c0 -28 -2 -30 -25 -24 -35 9 -65 -20 -65 -61 0 -41 27
-65 68 -62 l32 2 0 88 c0 48 -2 87 -5 87 -3 0 -5 -14 -5 -30z m-4 -64 c9 -38
-4 -66 -31 -66 -23 0 -35 17 -35 49 0 42 56 57 66 17z"/>
<path d="M2180 6885 c-21 -25 -4 -62 34 -75 34 -11 51 -33 40 -51 -9 -15 -46
-10 -66 8 -26 23 -34 9 -9 -16 25 -25 63 -27 85 -5 30 30 15 60 -43 84 -33 13
-39 31 -17 49 16 13 42 6 50 -15 6 -16 26 -19 26 -5 0 35 -76 55 -100 26z"/>
<path d="M2326 6844 c-35 -35 -11 -114 35 -114 27 0 59 35 59 65 0 51 -61 83
-94 49z m64 -18 c26 -32 -7 -87 -44 -73 -16 6 -23 66 -9 80 11 12 40 8 53 -7z"/>
<path d="M2460 6806 c0 -62 11 -75 63 -73 l37 1 0 63 c0 76 -18 85 -22 11 -3
-49 -5 -53 -30 -56 -28 -3 -28 -2 -28 52 0 31 -4 56 -10 56 -5 0 -10 -24 -10
-54z"/>
<path d="M2600 6793 c0 -76 18 -85 22 -10 3 48 5 52 28 52 23 0 25 -4 28 -52
4 -69 22 -68 22 1 0 62 -11 75 -62 73 l-38 -1 0 -63z"/>
<path d="M2906 6845 c-21 -22 -10 -42 30 -55 19 -6 34 -18 34 -26 0 -17 -41
-19 -58 -2 -6 6 -15 8 -19 4 -11 -11 26 -36 52 -36 12 0 26 5 33 12 23 23 13
45 -29 61 -23 9 -38 21 -34 27 8 14 38 13 53 -2 17 -17 28 -2 12 17 -16 19
-54 19 -74 0z"/>
<path d="M3320 6850 c0 -6 17 -17 38 -26 l37 -17 -37 -15 c-21 -8 -38 -19 -38
-23 0 -12 2 -12 54 11 25 10 46 23 46 28 0 5 -22 19 -50 30 -27 12 -50 17 -50
12z"/>
<path d="M3203 6803 c15 -2 37 -2 50 0 12 2 0 4 -28 4 -27 0 -38 -2 -22 -4z"/>
<path d="M1697 6693 c-39 -6 -63 -46 -48 -79 6 -13 20 -28 31 -32 19 -7 15
-15 -49 -97 -39 -50 -71 -94 -71 -100 0 -17 31 -99 42 -112 34 -41 100 6 175
123 l39 61 17 -28 c12 -22 24 -29 46 -29 49 0 63 33 65 151 1 99 0 101 -27
125 -25 21 -37 24 -110 23 -45 -1 -94 -4 -110 -6z"/>
<path d="M3475 6550 c-25 -10 -40 -28 -49 -57 -6 -19 -3 -23 13 -23 11 0 22 9
26 21 14 43 80 44 96 2 12 -31 4 -45 -71 -130 -85 -96 -82 -103 35 -103 77 0
95 3 95 15 0 11 -17 15 -69 17 l-70 3 56 64 c66 78 77 103 63 146 -15 47 -72
67 -125 45z"/>
<path d="M3503 6188 c-34 -9 -63 -41 -63 -70 0 -26 33 -22 45 4 15 34 59 46
85 23 11 -10 20 -26 20 -37 0 -26 -36 -58 -65 -58 -37 0 -31 -27 8 -35 44 -10
57 -22 57 -56 0 -40 -40 -67 -76 -50 -14 6 -28 20 -31 31 -8 30 -43 26 -43 -4
0 -60 112 -90 165 -43 15 13 28 37 32 59 4 30 1 41 -20 62 -24 24 -24 25 -6
42 27 25 25 85 -3 111 -28 25 -63 32 -105 21z"/>
<path d="M1843 5863 c-7 -2 -13 -13 -13 -24 0 -12 -7 -19 -20 -19 -11 0 -20
-4 -20 -10 0 -5 9 -10 20 -10 17 0 20 -7 20 -50 0 -27 5 -50 10 -50 6 0 10 23
10 50 0 43 3 50 20 50 11 0 20 5 20 10 0 6 -9 10 -20 10 -11 0 -20 7 -20 15 0
9 9 15 25 15 14 0 25 5 25 10 0 10 -35 12 -57 3z"/>
<path d="M3186 5863 c-3 -3 -6 -16 -6 -29 0 -18 -4 -21 -21 -17 -28 8 -49 -20
-49 -63 0 -40 17 -54 63 -52 l37 1 0 78 c0 72 -8 98 -24 82z m-6 -104 c0 -36
-2 -40 -22 -37 -40 5 -37 78 2 78 17 0 20 -6 20 -41z"/>
<path d="M763 5848 c-13 -17 -14 -120 -1 -135 12 -15 47 -17 66 -4 7 4 13 19
12 32 0 13 0 39 0 58 0 18 -5 40 -11 47 -14 17 -53 18 -66 2z m55 -31 c4 -20
-25 -34 -40 -19 -15 15 -1 44 19 40 10 -2 19 -11 21 -21z m0 -75 c3 -18 -1
-22 -22 -22 -19 0 -26 5 -26 18 0 39 43 43 48 4z"/>
<path d="M2076 5844 c-19 -18 -20 -36 -5 -51 8 -8 8 -13 0 -17 -15 -9 -14 -49
1 -64 22 -22 67 -14 80 13 8 19 9 28 0 37 -6 6 -8 24 -5 39 10 51 -36 78 -71
43z m49 -29 c0 -11 -7 -21 -16 -23 -18 -3 -33 23 -23 39 10 17 39 5 39 -16z
m9 -61 c8 -21 -1 -34 -24 -34 -22 0 -34 15 -26 35 7 20 42 19 50 -1z"/>
<path d="M2206 5844 c-18 -18 -22 -95 -6 -125 13 -23 53 -25 74 -3 23 23 21
106 -2 127 -23 21 -46 22 -66 1z m57 -19 c4 -9 -5 -22 -23 -35 l-30 -21 0 29
c0 16 3 32 7 35 12 12 41 7 46 -8z m3 -80 c-4 -16 -14 -25 -26 -25 -33 0 -35
22 -4 47 31 24 40 18 30 -22z"/>
<path d="M2344 5852 c-17 -11 -22 -35 -12 -54 5 -11 4 -25 -4 -38 -18 -28 0
-54 39 -58 41 -4 60 20 46 59 -7 17 -7 31 -2 35 14 8 11 31 -7 48 -16 17 -42
20 -60 8z m49 -25 c8 -20 -9 -41 -27 -34 -23 9 -21 47 3 47 10 0 21 -6 24 -13z
m2 -82 c0 -22 -31 -33 -47 -17 -17 17 -1 44 24 40 15 -2 23 -10 23 -23z"/>
<path d="M2596 5838 c-19 -27 -9 -46 35 -67 19 -9 34 -23 34 -31 0 -22 -44
-25 -60 -3 -15 21 -29 14 -19 -10 13 -35 88 -33 99 3 8 27 -1 39 -41 56 -36
15 -45 40 -19 51 9 3 25 -3 35 -12 26 -24 38 -11 15 15 -24 26 -60 25 -79 -2z"/>
<path d="M1024 5811 c-2 -2 -4 -28 -4 -58 0 -40 4 -53 14 -53 11 0 16 14 18
48 3 40 6 47 26 50 36 5 25 21 -14 19 -19 -1 -37 -4 -40 -6z"/>
<path d="M1158 5809 c-21 -12 -25 -78 -6 -97 32 -32 88 -2 88 47 0 47 -43 73
-82 50z m58 -34 c9 -36 -2 -57 -28 -53 -39 5 -38 78 1 78 14 0 23 -9 27 -25z"/>
<path d="M1260 5811 c0 -28 23 -111 30 -111 5 0 12 16 16 35 7 40 19 38 27 -5
9 -41 23 -38 32 8 3 20 9 47 12 60 9 38 -13 24 -23 -15 l-10 -38 -8 38 c-5 20
-12 37 -16 37 -4 0 -12 -17 -18 -37 l-10 -38 -7 33 c-7 31 -25 55 -25 33z"/>
<path d="M1422 5808 c-21 -21 -13 -39 23 -54 19 -8 35 -19 35 -24 0 -14 -44
-12 -58 2 -9 9 -12 8 -12 -5 0 -20 47 -34 69 -20 30 19 25 43 -13 58 -20 9
-36 20 -36 25 0 14 34 12 48 -2 17 -17 28 -2 12 17 -15 18 -51 20 -68 3z"/>
<path d="M1677 5802 c-35 -38 -9 -102 40 -102 28 0 46 25 46 62 0 52 -53 76
-86 40z m62 -24 c11 -29 -4 -58 -29 -58 -13 0 -22 9 -26 25 -12 47 39 77 55
33z"/>
<path d="M2727 5802 c-35 -38 -9 -102 40 -102 28 0 46 25 46 62 0 52 -53 76
-86 40z m62 -24 c11 -29 -4 -58 -29 -58 -13 0 -22 9 -26 25 -12 47 39 77 55
33z"/>
<path d="M2850 5771 c0 -56 12 -70 58 -69 l32 1 0 59 c0 69 -18 78 -22 11 -3
-40 -6 -48 -23 -48 -17 0 -20 8 -23 48 -4 62 -22 61 -22 -2z"/>
<path d="M2980 5759 c0 -70 18 -80 22 -11 3 40 6 47 26 50 20 3 22 0 22 -47 0
-28 5 -51 10 -51 6 0 10 25 10 55 0 58 -4 62 -67 63 -21 1 -23 -4 -23 -59z"/>
<path d="M3263 5813 c-7 -2 -13 -16 -13 -29 0 -19 6 -26 30 -31 17 -3 33 -10
36 -14 9 -15 -28 -23 -48 -10 -25 15 -35 7 -18 -14 16 -19 64 -19 80 0 18 22
5 45 -30 51 -16 4 -30 13 -30 20 0 17 32 18 48 2 6 -6 14 -9 17 -6 3 3 -1 13
-10 22 -16 16 -38 19 -62 9z"/>
<path d="M3492 5657 c-29 -63 -52 -120 -52 -126 0 -7 21 -11 55 -11 l55 0 0
-35 c0 -24 5 -35 15 -35 10 0 15 11 15 35 0 24 5 35 15 35 8 0 15 9 15 20 0
11 -7 20 -15 20 -11 0 -15 20 -17 102 -4 144 -18 143 -86 -5z m54 -94 c-2 -2
-18 -3 -34 -1 l-30 3 31 65 32 65 3 -64 c2 -35 1 -65 -2 -68z"/>
<path d="M10285 4632 c-67 -23 -118 -64 -157 -126 -32 -49 -33 -55 -33 -151 0
-92 2 -104 28 -147 55 -92 152 -147 257 -148 89 0 178 44 232 115 48 63 61
111 56 206 -4 67 -9 82 -43 133 -77 117 -210 163 -340 118z m192 -85 c41 -22
83 -66 100 -106 19 -44 18 -142 -1 -178 -52 -101 -187 -153 -279 -107 -41 21
-95 71 -113 107 -19 36 -20 134 -1 178 19 45 75 97 123 115 46 17 129 12 171
-9z"/>
<path d="M11582 4615 c-30 -8 -73 -31 -97 -51 -128 -104 -129 -314 -2 -416 61
-49 102 -63 182 -62 85 1 131 20 186 75 58 58 79 109 79 194 0 87 -22 138 -83
198 -67 65 -169 89 -265 62z m139 -76 c40 -14 94 -62 116 -102 8 -16 14 -53
14 -83 0 -194 -252 -267 -354 -102 -33 53 -39 136 -13 186 46 88 146 131 237
101z"/>
<path d="M10907 4603 c-144 -48 -215 -237 -141 -373 63 -116 200 -169 324
-125 184 65 234 304 92 442 -70 68 -176 89 -275 56z m190 -90 c101 -65 119
-196 39 -281 -43 -47 -77 -62 -136 -62 -59 0 -93 15 -136 62 -59 62 -67 140
-22 219 49 87 171 117 255 62z"/>
<path d="M3762 4574 c-126 -55 -178 -228 -103 -346 92 -145 297 -150 395 -10
83 120 40 290 -89 351 -53 25 -152 27 -203 5z m186 -86 c39 -24 72 -84 72
-133 0 -75 -61 -146 -139 -161 -46 -9 -116 20 -149 64 -23 30 -27 45 -27 96 0
51 4 67 28 97 52 68 138 83 215 37z"/>
<path d="M7648 4579 c-77 -18 -162 -91 -197 -169 -30 -65 -28 -169 3 -236 29
-62 86 -120 146 -148 62 -29 177 -29 241 0 176 81 227 325 96 463 -80 84 -182
116 -289 90z m133 -79 c47 -13 116 -73 135 -119 19 -45 20 -128 1 -172 -40
-95 -152 -147 -256 -119 -53 14 -126 79 -141 126 -15 44 -15 114 -1 157 15 44
78 105 127 122 47 17 87 18 135 5z"/>
<path d="M13453 4571 c-86 -40 -153 -143 -153 -235 0 -190 204 -315 376 -231
180 88 191 342 19 450 -63 39 -176 47 -242 16z m163 -66 c35 -7 98 -66 113
-108 65 -172 -159 -321 -290 -194 -79 78 -79 186 1 264 32 31 96 54 130 48 8
-2 29 -6 46 -10z"/>
<path d="M5667 4563 c-144 -48 -215 -237 -141 -373 63 -116 200 -169 324 -125
184 65 234 304 92 442 -70 68 -176 89 -275 56z"/>
<path d="M8301 4569 c-211 -42 -294 -304 -147 -466 55 -62 117 -88 206 -88 60
0 85 5 123 25 57 29 111 86 138 144 23 51 25 147 4 206 -45 128 -187 207 -324
179z m113 -80 c158 -44 201 -254 73 -352 -137 -104 -328 -13 -328 157 0 137
124 232 255 195z"/>
<path d="M9041 4569 c-211 -42 -294 -304 -147 -466 55 -62 117 -88 206 -88 60
0 85 5 123 25 57 29 111 86 138 144 23 51 25 147 4 206 -45 128 -187 207 -324
179z m113 -80 c158 -44 201 -254 73 -352 -137 -104 -328 -13 -328 157 0 137
124 232 255 195z"/>
<path d="M4419 4560 c-142 -25 -216 -199 -136 -319 109 -165 369 -101 385 95
12 140 -109 249 -249 224z m98 -91 c49 -24 73 -61 73 -114 0 -48 -22 -89 -63
-114 -87 -54 -197 10 -197 114 0 53 24 90 72 114 53 26 61 26 115 0z"/>
<path d="M12260 4561 c-110 -36 -172 -117 -172 -226 0 -132 101 -235 232 -235
89 0 156 41 207 128 62 105 14 255 -100 313 -44 23 -128 33 -167 20z m150
-101 c41 -29 74 -101 66 -144 -15 -80 -80 -136 -157 -136 -61 0 -107 31 -138
93 -27 55 -24 95 12 148 47 71 147 89 217 39z"/>
<path d="M5006 4546 c-77 -29 -133 -81 -154 -145 -15 -44 -15 -123 0 -173 24
-81 133 -158 223 -158 95 0 195 64 230 146 19 46 19 151 1 195 -46 108 -193
175 -300 135z m137 -80 c132 -56 132 -246 0 -302 -92 -39 -202 16 -221 111
-28 135 98 244 221 191z"/>
<path d="M6967 4543 c-144 -48 -215 -237 -141 -373 63 -116 200 -169 324 -125
184 65 234 304 92 442 -70 68 -176 89 -275 56z m190 -90 c101 -65 119 -196 39
-281 -43 -47 -77 -62 -136 -62 -59 0 -93 15 -136 62 -59 62 -67 140 -22 219
49 87 171 117 255 62z"/>
<path d="M9666 4546 c-77 -29 -133 -81 -154 -145 -15 -44 -15 -123 0 -173 24
-81 133 -158 223 -158 95 0 195 64 230 146 19 46 19 151 1 195 -46 108 -193
175 -300 135z m137 -80 c132 -56 132 -246 0 -302 -92 -39 -202 16 -221 111
-28 135 98 244 221 191z"/>
<path d="M3157 4532 c-11 -12 -17 -36 -17 -68 0 -47 -2 -51 -33 -62 -22 -8
-107 -12 -254 -12 -200 0 -221 -2 -236 -18 -22 -24 -21 -55 1 -75 16 -15 47
-17 219 -17 187 0 201 -1 218 -20 10 -11 26 -20 35 -20 15 0 18 -12 22 -69 2
-50 9 -75 22 -90 41 -45 92 -21 226 106 75 70 100 107 100 145 -1 36 -79 129
-149 176 -71 47 -125 56 -154 24z m123 -255 c0 -2 -11 -14 -25 -27 l-25 -23 0
26 c0 22 5 27 25 27 14 0 25 -1 25 -3z"/>
<path d="M12936 4518 c-162 -36 -197 -244 -59 -342 72 -50 181 -38 239 26 64
70 72 159 22 234 -49 71 -122 100 -202 82z m90 -84 c47 -22 64 -50 64 -102 0
-36 -6 -49 -30 -72 -37 -35 -73 -44 -116 -30 -93 31 -100 167 -9 206 40 17 50
17 91 -2z"/>
<path d="M6345 4516 c-5 -3 -22 -7 -38 -10 -36 -8 -104 -70 -128 -117 -23 -46
-25 -132 -4 -182 34 -82 111 -131 205 -131 94 0 171 49 205 131 20 47 19 136
-1 176 -20 40 -71 95 -105 112 -26 14 -116 28 -134 21z m105 -97 c48 -27 72
-69 72 -126 0 -52 -20 -85 -72 -120 -87 -60 -212 12 -212 120 0 57 24 98 71
126 46 26 93 27 141 0z"/>
<path d="M670 4175 c0 -43 4 -75 10 -75 6 0 10 14 10 30 0 25 4 30 23 30 50 0
67 63 21 80 -58 23 -64 17 -64 -65z m68 28 c2 -13 -1 -23 -6 -23 -6 0 -17 -3
-26 -6 -13 -5 -16 1 -16 26 0 27 3 31 23 28 14 -2 23 -11 25 -25z"/>
<path d="M1070 4240 c0 -5 5 -10 10 -10 6 0 10 5 10 10 0 6 -4 10 -10 10 -5 0
-10 -4 -10 -10z"/>
<path d="M1315 4240 c-3 -5 -1 -10 4 -10 6 0 11 5 11 10 0 6 -2 10 -4 10 -3 0
-8 -4 -11 -10z"/>
<path d="M1760 4240 c0 -5 9 -10 20 -10 18 0 20 -7 20 -55 0 -48 -2 -55 -20
-55 -11 0 -20 -4 -20 -10 0 -5 20 -10 45 -10 25 0 45 5 45 10 0 6 -7 10 -15
10 -12 0 -15 13 -15 55 0 42 3 55 15 55 8 0 15 5 15 10 0 6 -20 10 -45 10 -25
0 -45 -4 -45 -10z"/>
<path d="M2070 4231 c0 -14 -8 -21 -27 -23 -35 -4 -52 -45 -35 -83 9 -20 19
-25 47 -25 l35 0 0 75 c0 43 -4 75 -10 75 -5 0 -10 -9 -10 -19z m0 -77 c0 -31
-3 -35 -22 -32 -39 5 -37 68 2 68 16 0 20 -6 20 -36z"/>
<path d="M2165 4240 c-3 -5 1 -10 10 -10 9 0 13 5 10 10 -3 6 -8 10 -10 10 -2
0 -7 -4 -10 -10z"/>
<path d="M1180 4220 c0 -5 -7 -10 -15 -10 -8 0 -15 -4 -15 -10 0 -5 6 -10 14
-10 10 0 16 -14 18 -42 3 -39 6 -43 31 -46 15 -2 27 1 27 7 0 6 -9 11 -20 11
-31 0 -29 65 3 75 l22 8 -22 4 c-13 2 -23 9 -23 14 0 5 -4 9 -10 9 -5 0 -10
-4 -10 -10z"/>
<path d="M2520 4220 c0 -5 -7 -10 -15 -10 -8 0 -15 -4 -15 -10 0 -5 6 -10 14
-10 10 0 16 -14 18 -42 3 -39 6 -43 31 -46 15 -2 27 1 27 7 0 6 -9 11 -20 11
-16 0 -20 7 -20 35 0 28 4 35 20 35 11 0 20 5 20 10 0 6 -9 10 -20 10 -11 0
-20 5 -20 10 0 6 -4 10 -10 10 -5 0 -10 -4 -10 -10z"/>
<path d="M796 4194 c-32 -32 -10 -94 34 -94 26 0 50 27 50 55 0 28 -24 55 -50
55 -10 0 -26 -7 -34 -16z m59 -39 c0 -21 -5 -31 -19 -33 -26 -5 -40 12 -32 43
5 20 12 26 29 23 17 -2 22 -10 22 -33z"/>
<path d="M920 4196 c-10 -13 -10 -19 0 -31 7 -8 18 -15 24 -15 6 0 18 -5 26
-10 23 -15 -7 -32 -33 -18 -22 12 -38 1 -17 -12 38 -24 96 4 71 34 -7 8 -23
17 -36 20 -37 9 -31 30 6 22 22 -4 29 -2 27 7 -7 18 -53 20 -68 3z"/>
<path d="M1030 4200 c0 -5 9 -10 20 -10 16 0 20 -7 20 -35 0 -28 -4 -35 -20
-35 -11 0 -20 -4 -20 -10 0 -5 20 -10 45 -10 25 0 45 5 45 10 0 6 -7 10 -15
10 -11 0 -15 12 -15 45 0 43 -1 45 -30 45 -16 0 -30 -4 -30 -10z"/>
<path d="M1280 4200 c0 -5 7 -10 15 -10 10 0 15 -11 15 -35 0 -24 -5 -35 -15
-35 -8 0 -15 -4 -15 -10 0 -5 20 -10 45 -10 25 0 45 5 45 10 0 6 -9 10 -20 10
-17 0 -20 7 -20 45 0 41 -2 45 -25 45 -14 0 -25 -4 -25 -10z"/>
<path d="M1406 4194 c-32 -32 -10 -94 34 -94 26 0 50 27 50 55 0 28 -24 55
-50 55 -10 0 -26 -7 -34 -16z m59 -39 c0 -21 -5 -31 -19 -33 -26 -5 -40 12
-32 43 5 20 12 26 29 23 17 -2 22 -10 22 -33z"/>
<path d="M1520 4153 c0 -29 5 -53 10 -53 6 0 10 21 10 46 0 41 2 45 23 42 18
-2 23 -10 25 -45 4 -52 22 -58 22 -7 0 55 -15 74 -55 71 l-35 -2 0 -52z"/>
<path d="M1880 4154 c0 -64 17 -73 22 -11 2 35 7 43 26 45 20 3 22 -1 22 -42
0 -26 5 -46 11 -46 6 0 9 21 7 53 l-3 52 -42 1 -43 2 0 -54z"/>
<path d="M2130 4200 c0 -5 9 -10 20 -10 16 0 20 -7 20 -35 0 -28 -4 -35 -20
-35 -11 0 -20 -4 -20 -10 0 -5 20 -10 45 -10 25 0 45 5 45 10 0 6 -7 10 -15
10 -11 0 -15 12 -15 45 0 43 -1 45 -30 45 -16 0 -30 -4 -30 -10z"/>
<path d="M2262 4198 c-7 -7 -12 -26 -12 -43 0 -36 15 -55 46 -55 23 0 51 26
40 37 -4 4 -11 1 -15 -6 -15 -24 -46 -8 -46 24 0 32 31 48 46 24 4 -7 11 -10
15 -6 11 11 -17 37 -40 37 -12 0 -27 -5 -34 -12z"/>
<path d="M2380 4195 c-14 -17 -7 -19 19 -6 10 6 23 6 31 1 17 -10 15 -13 -25
-26 -23 -7 -30 -16 -30 -34 0 -22 4 -25 43 -26 l42 -2 0 42 c0 23 -5 47 -12
54 -17 17 -53 15 -68 -3z m58 -57 c-5 -15 -48 -24 -48 -10 0 14 12 22 33 22
10 0 17 -5 15 -12z"/>
<path d="M2618 4185 c-8 -18 -9 -35 -2 -53 13 -38 62 -38 83 -1 13 24 13 29
-2 53 -23 35 -63 35 -79 1z m67 -14 c9 -29 -5 -52 -29 -49 -37 5 -34 68 3 68
11 0 22 -8 26 -19z"/>
<path d="M2750 4153 c0 -63 18 -71 22 -10 3 38 6 42 31 45 42 5 32 21 -13 19
l-40 -1 0 -53z"/>
<path d="M8245 3357 c-3 -6 -4 -152 -3 -322 l3 -310 685 0 685 0 0 320 0 320
-683 3 c-543 2 -684 0 -687 -11z m1295 -312 l0 -256 -97 3 -98 3 -3 53 c-3 50
-2 53 17 43 36 -20 105 -13 128 12 34 37 43 63 43 127 0 66 -17 110 -52 134
-26 19 -80 21 -111 5 -16 -9 -22 -9 -25 0 -2 6 -15 11 -28 11 l-24 0 0 -195 0
-195 -485 0 -485 0 0 255 0 255 610 0 610 0 0 -255z m-84 64 c10 -11 19 -41
22 -72 4 -46 1 -57 -23 -85 -31 -37 -60 -41 -92 -10 -19 18 -23 32 -23 80 0
67 11 95 43 107 28 10 51 4 73 -20z"/>
<path d="M8375 3249 c-30 -26 -35 -37 -35 -73 0 -53 30 -84 118 -122 44 -19
64 -33 68 -50 9 -36 1 -58 -29 -72 -37 -18 -77 -4 -102 36 -24 37 -65 44 -65
12 0 -57 61 -100 141 -100 45 0 55 4 85 34 68 68 39 137 -82 192 -76 35 -94
57 -74 94 27 50 101 43 128 -13 9 -18 21 -27 38 -27 30 0 32 23 5 64 -27 40
-57 55 -113 56 -39 0 -54 -6 -83 -31z"/>
<path d="M8720 3216 c0 -34 -2 -36 -35 -36 -31 0 -35 -3 -35 -25 0 -22 4 -25
35 -25 l35 0 0 -77 c0 -94 14 -149 41 -163 11 -6 43 -10 72 -8 46 3 52 6 55
27 4 22 1 23 -32 17 -66 -13 -76 1 -76 109 l0 95 50 0 c47 0 50 2 50 25 0 23
-3 25 -49 25 -49 0 -50 1 -53 33 -2 27 -8 33 -30 35 -26 3 -28 1 -28 -32z"/>
<path d="M9024 3161 c-35 -21 -64 -83 -64 -134 1 -42 32 -110 61 -131 35 -24
110 -21 144 6 34 27 55 75 55 128 0 120 -102 188 -196 131z m111 -45 c45 -45
41 -147 -8 -181 -90 -63 -158 116 -70 185 33 26 49 25 78 -4z"/>
<path d="M6665 3337 c-3 -6 -4 -152 -3 -322 l3 -310 645 0 645 0 0 320 0 320
-643 3 c-511 2 -644 0 -647 -11z m1215 -133 l0 -75 -37 3 c-33 3 -38 7 -41 31
-2 19 -9 27 -23 27 -14 0 -19 -7 -19 -30 0 -25 -4 -30 -25 -30 -16 0 -25 -6
-25 -15 0 -9 9 -15 25 -15 24 0 25 -3 25 -57 1 -71 14 -133 32 -144 7 -5 30
-9 51 -9 l37 0 0 -60 0 -60 -570 0 -570 0 0 89 0 89 29 -29 c23 -23 38 -29 71
-29 33 0 48 6 71 29 33 33 35 47 15 95 -10 24 -26 38 -63 54 -58 25 -76 43
-71 73 7 48 75 51 96 4 7 -15 20 -25 32 -25 24 0 24 3 5 45 -25 52 -80 68
-134 40 -32 -16 -41 -33 -41 -79 0 -38 27 -67 82 -90 59 -25 80 -73 44 -98
-31 -21 -96 5 -96 39 0 7 -9 13 -20 13 -19 0 -20 7 -20 145 l0 145 570 0 570
0 0 -76z m0 -188 c0 -75 -2 -84 -20 -89 -35 -9 -53 16 -58 81 -6 81 -1 92 43
92 l35 0 0 -84z"/>
<path d="M7040 3160 c0 -27 -3 -30 -30 -30 -20 0 -30 -5 -30 -15 0 -10 10 -15
30 -15 l30 0 0 -83 c0 -108 13 -129 78 -125 58 4 67 31 12 36 -19 2 -38 9 -42
15 -4 7 -8 45 -8 85 l0 72 40 0 c29 0 40 4 40 15 0 11 -11 15 -40 15 -38 0
-40 2 -40 30 0 23 -4 30 -20 30 -16 0 -20 -7 -20 -30z"/>
<path d="M7290 3133 c-27 -10 -50 -36 -50 -55 0 -24 27 -23 40 2 11 20 45 26
66 12 6 -4 13 -17 16 -29 6 -21 2 -23 -28 -23 -41 0 -89 -22 -98 -45 -28 -73
44 -132 115 -95 13 7 19 7 19 0 0 -5 10 -10 21 -10 21 0 21 4 17 100 -3 83 -7
104 -23 120 -21 21 -70 33 -95 23z m78 -149 c4 -28 -30 -56 -65 -52 -22 2 -28
8 -28 28 0 45 87 68 93 24z"/>
<path d="M7571 3123 c-18 -12 -26 -13 -29 -5 -2 7 -12 12 -23 12 -18 0 -19 -8
-19 -120 0 -113 1 -120 20 -120 18 0 20 7 20 78 0 98 14 122 71 122 36 0 40 2
37 23 -4 28 -44 34 -77 10z"/>
<path d="M6192 2258 c-9 -9 -12 -94 -12 -319 0 -169 3 -314 6 -323 6 -14 112
-16 1104 -16 992 0 1098 2 1104 16 3 9 6 154 6 323 0 225 -3 310 -12 319 -17
17 -2179 17 -2196 0z m2128 -323 l0 -265 -1030 0 -1030 0 0 265 0 265 1030 0
1030 0 0 -265z"/>
<path d="M6435 2179 c-118 -10 -138 -23 -131 -93 5 -52 153 -333 190 -360 24
-18 28 -19 58 -4 25 12 45 38 85 111 98 178 116 259 70 312 -36 43 -88 49
-272 34z m175 -121 c0 -15 -57 -137 -72 -156 -9 -10 -21 4 -55 65 -23 43 -43
81 -43 85 0 9 40 15 113 17 40 1 57 -3 57 -11z"/>
<path d="M6760 1940 l0 -100 43 0 c54 0 87 22 87 59 0 15 -5 32 -12 39 -9 9
-9 15 0 24 33 33 -9 78 -73 78 l-45 0 0 -100z m90 65 c19 -23 4 -45 -30 -45
-27 0 -30 3 -30 30 0 25 4 30 24 30 13 0 29 -7 36 -15z m10 -94 c8 -16 6 -23
-12 -35 -39 -27 -58 -21 -58 19 0 32 2 35 30 35 19 0 33 -7 40 -19z"/>
<path d="M7300 2010 c0 -13 -7 -20 -20 -20 -11 0 -20 -4 -20 -10 0 -5 9 -10
20 -10 17 0 20 -7 20 -53 0 -62 11 -77 57 -77 40 0 44 17 6 22 -26 3 -28 7
-31 56 -3 50 -2 52 22 52 15 0 26 5 26 10 0 6 -11 10 -24 10 -15 0 -26 7 -29
20 -3 11 -10 20 -16 20 -6 0 -11 -9 -11 -20z"/>
<path d="M6947 1972 c-23 -26 -22 -94 1 -115 23 -21 75 -22 92 -2 16 19 5 34
-12 17 -17 -17 -42 -15 -61 6 -23 25 -13 32 46 32 49 0 49 0 43 28 -4 15 -14
33 -23 40 -24 18 -67 15 -86 -6z m71 -14 c20 -20 14 -28 -23 -28 -24 0 -35 5
-35 14 0 24 39 33 58 14z"/>
<path d="M7114 1976 c-26 -19 -10 -33 20 -16 28 15 56 8 56 -15 0 -10 -10 -15
-33 -15 -38 0 -57 -15 -57 -46 0 -32 20 -43 73 -42 l47 1 0 58 c0 65 -16 89
-59 89 -15 0 -36 -6 -47 -14z m74 -82 c-5 -27 -34 -40 -52 -25 -21 18 -3 41
31 41 17 0 24 -5 21 -16z"/>
<path d="M7600 1913 c0 -42 4 -73 10 -73 6 0 10 22 10 48 0 55 18 86 46 80 16
-3 19 -13 22 -66 2 -46 7 -62 17 -62 20 0 21 122 2 139 -8 6 -35 10 -60 9
l-47 -2 0 -73z"/>
<path d="M7780 1975 c-18 -22 -4 -31 25 -15 20 11 27 11 40 0 24 -20 18 -30
-20 -30 -38 0 -70 -34 -59 -63 7 -20 26 -26 80 -25 l42 1 -5 61 c-3 33 -10 67
-16 74 -13 17 -72 15 -87 -3z m80 -80 c0 -21 -47 -42 -62 -27 -6 6 -8 18 -5
26 8 21 67 22 67 1z"/>
<path d="M7920 1915 c0 -60 3 -75 15 -75 12 0 15 14 15 65 0 51 3 65 15 65 12
0 15 -14 15 -65 0 -51 3 -65 15 -65 12 0 15 14 15 66 0 48 3 65 13 62 7 -3 13
-28 15 -66 2 -46 7 -62 17 -62 11 0 15 14 15 56 0 83 -8 92 -85 93 l-65 1 0
-75z"/>
<path d="M8117 1972 c-23 -26 -22 -94 1 -115 23 -21 75 -22 92 -2 16 19 5 34
-12 17 -17 -17 -42 -15 -61 6 -23 25 -13 32 46 32 49 0 49 0 43 28 -4 15 -14
33 -23 40 -24 18 -67 15 -86 -6z m71 -14 c20 -20 14 -28 -23 -28 -24 0 -35 5
-35 14 0 24 39 33 58 14z"/>
<path d="M5616 2228 c-11 -16 -16 -46 -16 -100 l0 -78 -297 -2 -297 -3 -15
-26 c-13 -24 -13 -29 2 -53 l17 -26 295 0 295 0 0 -93 c0 -78 3 -97 18 -110
42 -38 99 -11 191 89 70 77 95 125 87 165 -3 16 -9 43 -12 60 -8 37 -93 133
-153 171 -55 34 -94 36 -115 6z m119 -158 c3 -5 1 -10 -4 -10 -6 0 -11 5 -11
10 0 6 2 10 4 10 3 0 8 -4 11 -10z m15 -134 c0 -2 -7 -9 -15 -16 -12 -10 -15
-10 -15 4 0 9 7 16 15 16 8 0 15 -2 15 -4z"/>
<path d="M8632 2178 c-9 -9 -12 -87 -12 -289 0 -153 3 -284 6 -293 6 -14 84
-16 784 -16 700 0 778 2 784 16 3 9 6 140 6 293 0 202 -3 280 -12 289 -17 17
-1539 17 -1556 0z m1488 -293 l0 -235 -710 0 -710 0 0 235 0 235 710 0 710 0
0 -235z"/>
<path d="M9880 2030 c0 -64 -9 -86 -25 -60 -8 13 -71 13 -96 0 -71 -39 -71
-241 0 -280 25 -13 77 -13 102 0 13 7 19 7 19 0 0 -5 11 -10 25 -10 l25 0 0
210 0 210 -25 0 c-24 0 -25 -2 -25 -70z m-17 -118 c27 -24 24 -138 -5 -169
-28 -30 -49 -29 -79 3 -20 21 -24 36 -24 86 0 53 3 62 28 84 28 24 48 23 80
-4z"/>
<path d="M8820 1880 l0 -200 110 0 110 0 0 25 c0 25 -1 25 -85 25 l-85 0 0
175 0 175 -25 0 -25 0 0 -200z"/>
<path d="M9155 1958 c-53 -42 -70 -130 -39 -207 20 -50 51 -71 106 -71 78 0
118 50 118 145 0 67 -27 126 -65 143 -40 18 -89 14 -120 -10z m109 -49 c47
-55 31 -163 -27 -183 -24 -9 -31 -6 -55 17 -23 24 -27 35 -27 88 0 54 3 63 28
85 37 31 50 30 81 -7z"/>
<path d="M9446 1955 c-29 -27 -35 -65 -10 -65 9 0 27 11 40 25 13 14 32 25 44
25 25 0 60 -34 60 -59 0 -16 -10 -19 -62 -23 -51 -4 -65 -9 -85 -32 -53 -62
-14 -146 70 -146 23 0 49 6 56 13 11 10 14 10 18 0 3 -7 17 -13 31 -13 l27 0
-3 107 c-4 159 -24 193 -113 193 -35 0 -52 -6 -73 -25z m134 -163 c0 -52 -66
-84 -105 -52 -40 33 -4 80 61 80 42 0 44 -1 44 -28z"/>
<path d="M3000 2021 c0 -41 4 -71 10 -71 6 0 10 18 10 40 0 33 3 40 20 40 17
0 20 -7 20 -40 0 -22 5 -40 10 -40 6 0 10 17 10 39 0 41 -20 67 -45 57 -10 -4
-15 1 -15 14 0 10 -4 22 -10 25 -6 4 -10 -20 -10 -64z"/>
<path d="M3710 2065 c0 -18 -4 -23 -15 -19 -22 9 -45 -14 -45 -45 0 -35 17
-51 52 -51 28 0 28 0 28 70 0 40 -4 70 -10 70 -5 0 -10 -11 -10 -25z m0 -64
c0 -35 -25 -48 -40 -21 -13 25 -3 50 21 50 14 0 19 -7 19 -29z"/>
<path d="M940 2015 c0 -63 1 -65 25 -65 14 0 34 9 45 20 11 11 20 31 20 45 0
14 -9 34 -20 45 -11 11 -31 20 -45 20 -24 0 -25 -2 -25 -65z m54 39 c28 -27
19 -74 -16 -87 -16 -6 -18 0 -18 48 0 57 8 66 34 39z"/>
<path d="M1370 2015 c0 -65 0 -65 28 -65 36 0 62 28 62 67 0 36 -27 63 -63 63
-26 0 -27 -1 -27 -65z m51 45 c26 -14 26 -75 0 -89 -26 -14 -31 -5 -31 51 0
52 1 53 31 38z"/>
<path d="M1920 2015 c0 -65 0 -65 29 -65 37 0 59 25 44 49 -6 10 -8 24 -3 31
14 23 -8 50 -40 50 l-30 0 0 -65z m45 19 c-22 -16 -41 -4 -31 21 5 13 10 14
28 4 21 -11 21 -12 3 -25z m13 -46 c3 -13 -3 -18 -22 -18 -20 0 -26 5 -26 21
0 15 5 20 22 17 13 -2 24 -11 26 -20z"/>
<path d="M3220 2061 c-11 -22 5 -45 41 -56 11 -4 19 -14 17 -23 -4 -22 -23
-25 -42 -6 -20 20 -34 11 -16 -11 16 -19 54 -19 70 0 16 20 7 40 -26 57 -15 7
-29 18 -31 24 -6 19 25 24 42 7 20 -19 33 -9 15 12 -18 21 -57 19 -70 -4z"/>
<path d="M3871 2013 c1 -38 4 -56 6 -42 3 18 13 28 36 35 55 16 44 74 -14 74
l-29 0 1 -67z m43 51 c27 -10 20 -44 -9 -44 -18 0 -25 5 -25 18 0 29 9 36 34
26z"/>
<path d="M2140 2053 c-10 -12 -11 -18 -2 -21 7 -2 12 -13 12 -23 0 -32 19 -59
40 -59 11 0 20 4 20 9 0 5 -8 8 -17 7 -13 -1 -19 8 -21 32 -3 27 0 32 17 32
12 0 21 5 21 10 0 6 -9 10 -20 10 -11 0 -20 5 -20 10 0 15 -13 12 -30 -7z"/>
<path d="M2250 2053 c-10 -12 -11 -18 -2 -21 7 -2 12 -14 12 -27 0 -40 11 -55
39 -54 25 0 25 0 4 9 -27 11 -34 70 -8 70 8 0 15 5 15 10 0 6 -7 10 -15 10 -8
0 -15 5 -15 10 0 15 -13 12 -30 -7z"/>
<path d="M2900 2053 c-10 -12 -11 -18 -2 -21 7 -2 12 -14 12 -27 0 -40 11 -55
39 -54 25 0 25 0 4 9 -27 11 -34 70 -8 70 8 0 15 5 15 10 0 6 -7 10 -15 10 -8
0 -15 5 -15 10 0 15 -13 12 -30 -7z"/>
<path d="M4090 2053 c-10 -12 -11 -18 -2 -21 7 -2 12 -13 12 -23 0 -32 19 -59
40 -59 11 0 20 4 20 9 0 5 -8 8 -17 7 -13 -1 -19 8 -21 32 -3 27 0 32 17 32
12 0 21 5 21 10 0 6 -9 10 -20 10 -11 0 -20 5 -20 10 0 15 -13 12 -30 -7z"/>
<path d="M4200 2053 c-10 -12 -11 -18 -2 -21 7 -2 12 -14 12 -27 0 -40 11 -55
39 -54 25 0 25 0 4 9 -27 11 -34 70 -8 70 8 0 15 5 15 10 0 6 -7 10 -15 10 -8
0 -15 5 -15 10 0 15 -13 12 -30 -7z"/>
<path d="M1064 2041 c-8 -9 -4 -91 5 -91 6 0 11 17 13 38 2 30 7 38 26 40 34
5 26 21 -9 19 -17 -1 -32 -4 -35 -6z"/>
<path d="M1164 2025 c-22 -34 -6 -75 29 -75 45 0 64 52 31 84 -22 23 -41 20
-60 -9z m54 -24 c4 -28 -17 -45 -35 -29 -14 11 -17 40 -6 52 14 14 38 0 41
-23z"/>
<path d="M1271 1976 c1 -39 4 -61 6 -48 3 16 11 22 29 22 28 0 46 34 37 69 -6
23 -6 23 -45 26 l-28 2 1 -71z m57 28 c3 -23 -21 -49 -38 -39 -11 7 -14 48 -3
59 13 13 38 1 41 -20z"/>
<path d="M1496 2037 c-39 -29 1 -106 42 -81 33 21 24 94 -12 94 -7 0 -20 -6
-30 -13z m52 -33 c3 -23 -21 -49 -38 -39 -5 3 -10 20 -10 36 0 26 3 30 23 27
13 -2 23 -11 25 -24z"/>
<path d="M1585 2019 c11 -58 16 -69 26 -64 5 4 9 15 9 26 0 10 5 19 10 19 6 0
10 -9 10 -19 0 -26 17 -36 24 -14 15 54 18 85 7 79 -6 -4 -11 -19 -12 -34 l-1
-27 -11 28 c-6 15 -14 27 -17 27 -3 0 -11 -12 -17 -27 l-11 -28 -1 27 c-1 15
-6 30 -12 34 -8 4 -9 -4 -4 -27z"/>
<path d="M1700 1998 c0 -27 5 -48 10 -48 6 0 10 18 10 40 0 33 3 40 20 40 17
0 20 -7 20 -40 0 -22 5 -40 10 -40 14 0 12 76 -2 88 -7 6 -25 10 -40 9 -26 -2
-28 -5 -28 -49z"/>
<path d="M2034 2005 c1 -49 1 -50 34 -51 l32 -1 -2 51 c-1 42 -2 45 -5 14 -4
-39 -28 -67 -43 -52 -5 5 -11 27 -13 49 -3 33 -4 31 -3 -10z"/>
<path d="M2361 2036 c-31 -37 9 -103 47 -80 36 23 23 94 -18 94 -10 0 -23 -6
-29 -14z m53 -22 c6 -17 -9 -54 -23 -54 -17 0 -32 30 -26 50 8 24 40 27 49 4z"/>
<path d="M2461 1995 l2 -50 6 40 c5 32 11 41 29 43 20 3 22 -1 22 -37 0 -23 5
-41 10 -41 13 0 13 60 0 80 -5 8 -23 15 -40 15 -30 1 -30 0 -29 -50z"/>
<path d="M2671 2034 c-1 -32 10 -84 19 -84 4 0 11 15 17 33 l10 32 7 -32 c10
-44 22 -42 30 5 9 58 6 70 -9 32 -9 -24 -14 -29 -14 -15 -1 11 -5 26 -10 34
-7 11 -12 6 -19 -20 l-9 -34 -11 35 c-7 24 -10 28 -11 14z"/>
<path d="M2790 2040 c0 -5 7 -10 15 -10 10 0 15 -10 15 -30 0 -20 -5 -30 -15
-30 -8 0 -15 -4 -15 -10 0 -5 18 -10 41 -10 24 0 38 4 34 10 -3 6 -13 10 -21
10 -10 0 -14 12 -14 40 0 33 -3 40 -20 40 -11 0 -20 -4 -20 -10z"/>
<path d="M3343 2043 c-23 -9 -14 -20 12 -15 15 2 25 0 25 -7 0 -6 -9 -11 -20
-11 -25 0 -44 -32 -28 -48 7 -7 25 -12 40 -12 26 0 28 2 28 44 0 50 -18 65
-57 49z m41 -52 c3 -5 -1 -14 -10 -21 -11 -10 -18 -10 -27 -1 -9 9 -9 14 3 21
19 12 27 12 34 1z"/>
<path d="M3430 2043 c0 -16 33 -93 40 -93 9 0 40 75 39 93 0 6 -9 -6 -19 -27
l-18 -40 -16 37 c-14 34 -26 48 -26 30z"/>
<path d="M3552 2038 c-7 -7 -12 -24 -12 -38 0 -14 5 -31 12 -38 15 -15 55 -16
63 -1 4 6 -3 9 -21 7 -15 -2 -29 3 -31 10 -3 8 6 12 26 12 23 0 31 5 31 18 0
22 -19 42 -40 42 -9 0 -21 -5 -28 -12z m48 -18 c0 -5 -9 -10 -20 -10 -11 0
-20 5 -20 10 0 6 9 10 20 10 11 0 20 -4 20 -10z"/>
<path d="M3993 2043 c-23 -9 -14 -20 12 -15 15 2 25 0 25 -7 0 -6 -9 -11 -20
-11 -25 0 -44 -32 -28 -48 7 -7 25 -12 40 -12 26 0 28 2 28 44 0 50 -18 65
-57 49z m41 -52 c3 -5 -1 -14 -10 -21 -11 -10 -18 -10 -27 -1 -9 9 -9 14 3 21
19 12 27 12 34 1z"/>
<path d="M4312 2038 c-11 -14 -15 -33 -13 -60 1 -22 44 -33 68 -18 16 10 15
11 -8 6 -17 -4 -31 0 -39 9 -11 13 -7 15 24 15 40 0 47 17 20 44 -19 19 -38
20 -52 4z m48 -18 c0 -5 -12 -10 -26 -10 -14 0 -23 4 -19 10 3 6 15 10 26 10
10 0 19 -4 19 -10z"/>
<path d="M4420 1998 c0 -57 17 -65 22 -10 2 30 7 38 26 40 35 5 26 20 -13 19
l-35 -1 0 -48z"/>
<path d="M4521 1995 l2 -50 6 40 c5 31 10 40 26 40 16 0 21 -9 26 -40 7 -38 7
-38 5 10 -1 49 -1 50 -33 50 l-33 1 1 -51z"/>
<path d="M4643 2043 c-23 -9 -15 -42 12 -49 14 -3 25 -10 25 -14 0 -16 -22
-22 -33 -11 -17 17 -31 13 -17 -4 7 -8 23 -15 37 -15 30 0 43 30 19 44 -10 6
-25 17 -34 24 -15 12 -13 13 16 8 33 -6 45 7 16 18 -18 7 -23 7 -41 -1z"/>
<path d="M6112 1398 c-9 -9 -12 -94 -12 -319 0 -169 3 -314 6 -323 6 -14 113
-16 1114 -16 1001 0 1108 2 1114 16 3 9 6 154 6 323 0 225 -3 310 -12 319 -17
17 -2199 17 -2216 0z m2148 -323 l0 -265 -1040 0 -1040 0 0 265 0 265 1040 0
1040 0 0 -265z"/>
<path d="M8672 1358 c-9 -9 -12 -91 -12 -309 0 -164 3 -304 6 -313 6 -14 87
-16 814 -16 727 0 808 2 814 16 3 9 6 149 6 313 0 218 -3 300 -12 309 -17 17
-1599 17 -1616 0z m1548 -313 l0 -255 -740 0 -740 0 0 255 0 255 740 0 740 0
0 -255z"/>
<path d="M8981 1214 c-23 -19 -31 -34 -31 -58 0 -44 18 -65 86 -101 43 -21 60
-36 62 -53 5 -33 -15 -52 -55 -52 -27 0 -37 6 -51 30 -9 16 -25 30 -34 30 -21
0 -23 -12 -7 -43 19 -37 52 -57 96 -57 57 0 97 34 97 83 0 46 -24 73 -91 102
-59 26 -75 55 -47 86 9 10 27 19 39 19 23 0 55 -28 55 -48 0 -7 9 -12 20 -12
14 0 20 7 20 24 0 34 -53 76 -95 76 -21 0 -45 -9 -64 -26z"/>
<path d="M9244 1146 c-28 -13 -44 -33 -44 -57 0 -17 35 -9 48 11 16 27 57 26
76 -2 23 -33 21 -35 -34 -40 -28 -3 -59 -13 -70 -23 -26 -24 -27 -86 -2 -108
21 -19 73 -22 103 -7 13 7 19 7 19 0 0 -5 10 -10 21 -10 21 0 21 4 17 100 -3
83 -7 104 -23 120 -27 26 -73 33 -111 16z m94 -142 c4 -28 -30 -56 -65 -52
-24 3 -28 8 -28 33 0 22 6 31 25 36 41 12 65 6 68 -17z"/>
<path d="M9724 1126 c-31 -31 -34 -39 -34 -96 0 -55 3 -65 29 -91 39 -38 97
-40 138 -5 24 21 26 25 11 31 -9 4 -27 -1 -41 -10 -29 -19 -70 -8 -86 24 -20
37 -13 41 64 41 l75 0 0 30 c0 42 -20 79 -51 96 -43 22 -68 17 -105 -20z m100
-28 c24 -34 20 -38 -39 -38 -59 0 -67 8 -35 40 26 26 55 25 74 -2z"/>
<path d="M9461 1068 c17 -46 37 -99 44 -118 23 -65 43 -47 91 80 24 63 44 116
44 118 0 2 -10 2 -22 0 -17 -2 -27 -19 -47 -80 -14 -42 -29 -80 -33 -83 -3 -4
-19 32 -34 79 -24 75 -31 86 -51 86 l-22 0 30 -82z"/>
<path d="M5580 1215 c-7 -9 -21 -44 -30 -78 l-17 -62 -218 -3 c-186 -2 -222
-5 -237 -19 -23 -21 -23 -55 0 -76 16 -15 47 -17 225 -17 l207 0 0 -52 c0 -56
23 -114 52 -132 25 -15 65 10 106 67 22 30 52 57 82 72 64 33 90 67 90 120 0
46 -14 63 -66 84 -17 7 -53 34 -80 62 -51 52 -90 63 -114 34z"/>
<path d="M2400 1105 c-5 -14 -16 -25 -25 -25 -8 0 -15 -4 -15 -10 0 -5 7 -10
15 -10 12 0 15 -13 15 -55 0 -42 3 -55 15 -55 12 0 15 13 15 55 0 48 2 55 20
55 11 0 20 5 20 10 0 6 -9 10 -20 10 -11 0 -20 7 -20 15 0 9 9 15 25 15 14 0
25 5 25 10 0 6 -14 10 -30 10 -23 0 -33 -6 -40 -25z"/>
<path d="M2790 1121 c0 -5 9 -11 20 -14 17 -4 20 -14 20 -71 0 -59 -2 -66 -20
-66 -11 0 -20 -4 -20 -10 0 -5 23 -10 50 -10 28 0 50 5 50 10 0 6 -9 10 -20
10 -18 0 -20 7 -20 80 l0 80 -30 0 c-16 0 -30 -4 -30 -9z"/>
<path d="M3000 1099 c0 -25 -3 -30 -16 -25 -28 11 -64 -21 -64 -55 0 -52 15
-69 60 -67 l40 1 0 89 c0 52 -4 88 -10 88 -5 0 -10 -14 -10 -31z m-12 -48 c21
-13 11 -75 -12 -79 -32 -7 -50 50 -24 76 14 14 19 15 36 3z"/>
<path d="M4326 1123 c-3 -3 -6 -43 -6 -88 l0 -83 40 0 c23 -1 46 6 55 14 35
35 4 120 -41 111 -20 -3 -24 0 -24 19 0 24 -13 38 -24 27z m78 -96 c8 -21 6
-31 -6 -44 -25 -24 -48 -9 -48 30 0 19 3 37 7 41 14 14 38 0 47 -27z"/>
<path d="M820 1110 c0 -5 9 -10 20 -10 18 0 20 -7 20 -65 0 -58 -2 -65 -20
-65 -11 0 -20 -4 -20 -10 0 -5 23 -10 50 -10 28 0 50 5 50 10 0 6 -9 10 -20
10 -18 0 -20 7 -20 65 0 58 2 65 20 65 11 0 20 5 20 10 0 6 -22 10 -50 10 -27
0 -50 -4 -50 -10z"/>
<path d="M2550 1110 c0 -5 5 -10 10 -10 6 0 10 5 10 10 0 6 -4 10 -10 10 -5 0
-10 -4 -10 -10z"/>
<path d="M1415 1098 c-4 -10 -13 -18 -21 -18 -8 0 -14 -4 -14 -10 0 -5 7 -10
15 -10 11 0 15 -11 15 -43 0 -48 13 -67 47 -67 30 0 30 18 1 22 -19 2 -24 10
-26 46 -3 39 -1 42 22 42 14 0 26 5 26 10 0 6 -11 10 -24 10 -15 0 -26 7 -29
18 -4 16 -4 16 -12 0z"/>
<path d="M1695 1098 c-4 -10 -13 -18 -21 -18 -8 0 -14 -4 -14 -10 0 -5 7 -10
15 -10 11 0 15 -11 15 -43 0 -48 13 -67 47 -67 30 0 30 18 1 22 -19 2 -24 10
-26 46 -3 39 -1 42 22 42 14 0 26 5 26 10 0 6 -11 10 -24 10 -15 0 -26 7 -29
18 -4 16 -4 16 -12 0z"/>
<path d="M2115 1098 c-4 -10 -13 -18 -21 -18 -8 0 -14 -4 -14 -10 0 -5 7 -10
15 -10 11 0 15 -11 15 -43 0 -48 13 -67 47 -67 30 0 30 18 1 22 -19 2 -24 10
-26 46 -3 39 -1 42 22 42 14 0 26 5 26 10 0 6 -11 10 -24 10 -15 0 -26 7 -29
18 -4 16 -4 16 -12 0z"/>
<path d="M3235 1098 c-4 -10 -13 -18 -21 -18 -8 0 -14 -4 -14 -10 0 -5 7 -10
15 -10 11 0 15 -11 15 -36 0 -19 5 -44 10 -55 11 -20 54 -26 65 -9 4 6 -5 10
-19 10 -24 0 -26 3 -26 45 0 38 3 45 20 45 11 0 20 5 20 10 0 6 -7 10 -16 10
-9 0 -23 8 -30 18 -12 16 -13 16 -19 0z"/>
<path d="M4775 1098 c-4 -10 -13 -18 -21 -18 -8 0 -14 -4 -14 -10 0 -5 7 -10
15 -10 11 0 15 -11 15 -36 0 -19 5 -44 10 -55 11 -20 54 -26 65 -9 4 6 -5 10
-19 10 -24 0 -26 3 -26 45 0 38 3 45 20 45 11 0 20 5 20 10 0 6 -7 10 -16 10
-9 0 -23 8 -30 18 -12 16 -13 16 -19 0z"/>
<path d="M960 1015 c0 -37 4 -65 10 -65 6 0 10 20 10 44 0 46 19 72 45 62 11
-4 15 -20 15 -56 0 -27 5 -50 10 -50 6 0 10 25 10 55 0 49 -3 57 -25 67 -19 8
-28 8 -40 -2 -10 -8 -15 -9 -15 -1 0 6 -4 11 -10 11 -6 0 -10 -28 -10 -65z"/>
<path d="M1100 989 c0 -53 4 -89 10 -89 6 0 10 13 10 29 0 25 3 28 25 23 35
-6 55 14 55 57 0 51 -12 64 -59 67 l-41 2 0 -89z m69 57 c7 -8 11 -27 9 -43
-2 -22 -8 -28 -28 -28 -21 0 -26 5 -28 34 -5 45 23 66 47 37z"/>
<path d="M1240 1026 c0 -63 12 -76 63 -74 l37 1 0 64 c0 76 -18 85 -22 11 -3
-49 -5 -53 -28 -53 -23 0 -25 4 -28 53 -4 68 -22 67 -22 -2z"/>
<path d="M1822 1064 c-15 -10 -22 -25 -22 -49 0 -52 36 -77 84 -59 26 10 18
25 -9 18 -25 -6 -55 9 -55 27 0 5 20 9 45 9 51 0 59 16 25 50 -24 24 -38 25
-68 4z m56 -27 c3 -12 -3 -17 -21 -17 -31 0 -40 10 -25 27 15 18 42 12 46 -10z"/>
<path d="M1940 1074 c0 -3 9 -18 20 -34 l20 -28 -21 -26 c-27 -35 -16 -46 15
-17 l24 22 15 -21 c9 -12 21 -20 27 -18 7 2 3 14 -11 31 l-22 29 23 30 c28 37
18 49 -15 18 l-25 -24 -16 22 c-14 20 -34 30 -34 16z"/>
<path d="M2510 1071 c0 -5 9 -11 20 -14 16 -4 20 -14 20 -46 0 -34 -3 -41 -20
-41 -11 0 -20 -4 -20 -10 0 -5 23 -10 50 -10 28 0 50 5 50 10 0 6 -9 10 -20
10 -18 0 -20 7 -20 55 0 54 0 55 -30 55 -16 0 -30 -4 -30 -9z"/>
<path d="M2662 1064 c-15 -10 -22 -25 -22 -49 0 -52 36 -77 84 -59 26 10 18
25 -9 18 -25 -6 -55 9 -55 27 0 5 20 9 45 9 51 0 59 16 25 50 -24 24 -38 25
-68 4z m56 -27 c3 -12 -3 -17 -21 -17 -31 0 -40 10 -25 27 15 18 42 12 46 -10z"/>
<path d="M3362 1064 c-44 -31 -19 -114 35 -114 50 0 73 85 31 114 -12 9 -27
16 -33 16 -6 0 -21 -7 -33 -16z m56 -16 c30 -30 -2 -93 -36 -71 -21 13 -27 50
-12 69 15 17 32 18 48 2z"/>
<path d="M3624 1071 c-2 -2 -4 -31 -4 -63 0 -44 3 -58 14 -58 11 0 16 15 18
53 3 44 6 52 23 52 17 0 20 -8 23 -52 2 -40 7 -53 19 -53 13 0 15 10 11 55 -3
30 -8 58 -12 62 -8 8 -84 11 -92 4z"/>
<path d="M3784 1066 c-10 -8 -16 -18 -12 -22 4 -4 14 -1 23 6 16 13 45 7 45
-10 0 -5 -9 -10 -19 -10 -10 0 -29 -9 -42 -19 -36 -29 -16 -55 43 -58 l45 -2
-5 52 c-6 70 -35 94 -78 63z m54 -73 c-4 -22 -48 -31 -48 -10 0 19 10 27 32
27 13 0 18 -6 16 -17z"/>
<path d="M3900 1013 c0 -35 4 -63 10 -63 6 0 10 25 10 55 0 30 5 55 10 55 6 0
10 -25 10 -55 0 -42 3 -55 15 -55 12 0 15 13 15 55 0 30 5 55 10 55 6 0 10
-25 10 -55 0 -42 3 -55 15 -55 11 0 15 11 14 43 -1 72 -9 82 -68 82 l-51 0 0
-62z"/>
<path d="M4060 1060 c-25 -25 -26 -72 -2 -93 24 -22 66 -22 83 -1 12 15 10 16
-19 9 -21 -4 -38 -2 -47 5 -22 18 -8 30 36 30 32 0 39 3 39 19 0 20 -35 51
-57 51 -7 0 -22 -9 -33 -20z m59 -13 c6 -8 8 -17 4 -20 -12 -12 -53 -7 -53 6
0 28 30 37 49 14z"/>
<path d="M4480 1060 c-25 -25 -26 -72 -2 -93 24 -22 66 -22 83 -1 12 15 10 16
-19 9 -21 -4 -38 -2 -47 5 -22 18 -8 30 36 30 32 0 39 3 39 19 0 20 -35 51
-57 51 -7 0 -22 -9 -33 -20z m59 -13 c6 -8 8 -17 4 -20 -12 -12 -53 -7 -53 6
0 28 30 37 49 14z"/>
<path d="M4624 1066 c-10 -8 -16 -18 -12 -22 4 -4 14 -1 23 6 16 13 45 7 45
-10 0 -5 -9 -10 -19 -10 -10 0 -29 -9 -42 -19 -36 -29 -16 -55 43 -58 l45 -2
-5 52 c-6 70 -35 94 -78 63z m54 -73 c-4 -22 -48 -31 -48 -10 0 19 10 27 32
27 13 0 18 -6 16 -17z"/>
</g>
</svg>
